<?xml version="1.0" encoding="UTF-8" standalone="no"?>
<!-- Created with Inkscape (http://www.inkscape.org/) -->

<svg
   version="1.0"
   width="635.5799"
   height="280"
   id="svg2"
   xmlns="http://www.w3.org/2000/svg"
   xmlns:svg="http://www.w3.org/2000/svg"
   xmlns:rdf="http://www.w3.org/1999/02/22-rdf-syntax-ns#"
   xmlns:cc="http://creativecommons.org/ns#"
   xmlns:dc="http://purl.org/dc/elements/1.1/">
  <metadata
     id="metadata27">
    <rdf:RDF>
      <cc:Work
         rdf:about="">
        <dc:format>image/svg+xml</dc:format>
        <dc:type
           rdf:resource="http://purl.org/dc/dcmitype/StillImage" />
      </cc:Work>
    </rdf:RDF>
  </metadata>
  <defs
     id="defs4" />
  <path
     d="M 409.268,240 V 40 l 40,-40 v 280 z"
     id="path2397"
     style="fill:#3e1062;fill-opacity:1;stroke:none;stroke-width:1px;stroke-linejoin:round" />
  <path
     d="m 409.268,40 h -200 l -40,-40 h 280 z"
     id="path2393"
     style="fill:#35668e;fill-opacity:1;stroke:none;stroke-width:1px;stroke-linejoin:round" />
  <path
     d="m 209.268,40 v 200 l -40,40 V 0 Z"
     id="path2389"
     style="fill:#32b484;fill-opacity:1;stroke:none;stroke-width:1px;stroke-linejoin:round" />
  <path
     d="m 209.268,240 h 200 l 40,40 h -280 z"
     id="path2401"
     style="fill:#eae31b;fill-opacity:1;stroke:none;stroke-width:1px;stroke-linejoin:round" />
  <g
     aria-label="Self-revelation"
     transform="rotate(-90)"
     id="text2383"
     style="font-weight:500;font-size:24px;line-height:0%;font-family:Lato;-inkscape-font-specification:'Lato Medium';text-anchor:middle">
    <path
       d="m -205.81999,179.84401 q -0.12,0.204 -0.252,0.3 -0.132,0.096 -0.336,0.096 -0.216,0 -0.492,-0.192 -0.276,-0.204 -0.696,-0.444 -0.408,-0.252 -0.984,-0.444 -0.576,-0.204 -1.38,-0.204 -0.756,0 -1.332,0.204 -0.564,0.192 -0.948,0.54 -0.384,0.336 -0.588,0.804 -0.192,0.456 -0.192,0.996 0,0.696 0.348,1.152 0.36,0.456 0.936,0.78 0.576,0.324 1.308,0.564 0.732,0.24 1.5,0.504 0.768,0.252 1.5,0.588 0.732,0.336 1.308,0.852 0.576,0.504 0.924,1.248 0.36,0.732 0.36,1.8 0,1.14 -0.396,2.136 -0.384,0.996 -1.128,1.74 -0.744,0.744 -1.836,1.176 -1.08,0.42 -2.46,0.42 -0.828,0 -1.608,-0.168 -0.78,-0.156 -1.476,-0.444 -0.696,-0.3 -1.308,-0.708 -0.6,-0.42 -1.08,-0.936 l 0.732,-1.224 q 0.108,-0.144 0.252,-0.24 0.156,-0.096 0.348,-0.096 0.252,0 0.576,0.264 0.336,0.264 0.816,0.588 0.492,0.312 1.164,0.576 0.684,0.264 1.656,0.264 0.792,0 1.416,-0.204 0.624,-0.216 1.044,-0.6 0.432,-0.396 0.66,-0.948 0.228,-0.552 0.228,-1.224 0,-0.756 -0.348,-1.236 -0.348,-0.48 -0.924,-0.804 -0.576,-0.324 -1.308,-0.552 -0.732,-0.228 -1.5,-0.468 -0.768,-0.252 -1.5,-0.576 -0.732,-0.324 -1.308,-0.84 -0.576,-0.528 -0.924,-1.308 -0.348,-0.792 -0.348,-1.944 0,-0.924 0.36,-1.788 0.36,-0.864 1.044,-1.524 0.696,-0.672 1.704,-1.068 1.008,-0.408 2.304,-0.408 1.452,0 2.664,0.468 1.224,0.456 2.124,1.32 z"
       id="path7213" />
    <path
       d="m -194.14398,186.81601 q 0,-0.696 -0.204,-1.284 -0.192,-0.588 -0.576,-1.02 -0.384,-0.432 -0.936,-0.672 -0.552,-0.24 -1.272,-0.24 -1.476,0 -2.328,0.852 -0.84,0.852 -1.068,2.364 z m 1.932,5.712 q -0.432,0.504 -0.996,0.876 -0.564,0.36 -1.2,0.588 -0.636,0.228 -1.32,0.336 -0.672,0.108 -1.332,0.108 -1.26,0 -2.34,-0.42 -1.068,-0.432 -1.86,-1.248 -0.78,-0.828 -1.224,-2.04 -0.432,-1.224 -0.432,-2.808 0,-1.272 0.396,-2.364 0.396,-1.104 1.128,-1.92 0.744,-0.816 1.812,-1.284 1.068,-0.468 2.4,-0.468 1.116,0 2.052,0.372 0.948,0.36 1.632,1.056 0.684,0.696 1.068,1.716 0.396,1.02 0.396,2.328 0,0.54 -0.12,0.732 -0.12,0.18 -0.444,0.18 h -7.992 q 0.036,1.092 0.312,1.908 0.276,0.804 0.756,1.344 0.492,0.54 1.164,0.804 0.672,0.264 1.5,0.264 0.78,0 1.344,-0.18 0.576,-0.18 0.984,-0.384 0.42,-0.216 0.696,-0.396 0.288,-0.18 0.504,-0.18 0.288,0 0.444,0.216 z"
       id="path7215" />
    <path
       d="m -187.11201,176.55601 v 17.712 h -2.352 v -17.712 z"
       id="path7217" />
    <path
       d="m -182.972,194.26801 v -10.272 l -1.272,-0.156 q -0.276,-0.06 -0.456,-0.192 -0.168,-0.144 -0.168,-0.408 v -0.972 h 1.896 v -1.104 q 0,-1.044 0.3,-1.86 0.3,-0.816 0.852,-1.38 0.564,-0.576 1.344,-0.864 0.792,-0.3 1.776,-0.3 0.828,0 1.524,0.24 l -0.048,1.176 q -0.012,0.156 -0.096,0.24 -0.084,0.072 -0.228,0.108 -0.132,0.036 -0.336,0.048 -0.192,0 -0.42,0 -0.54,0 -0.984,0.132 -0.444,0.132 -0.756,0.444 -0.312,0.312 -0.48,0.828 -0.168,0.504 -0.168,1.26 v 1.032 h 3.42 v 1.704 h -3.348 v 10.296 z"
       id="path7219" />
    <path
       d="m -175.79599,186.06001 h 6 v 1.992 h -6 z"
       id="path7221" />
    <path
       d="m -164.48,184.41601 q 0.588,-1.2 1.416,-1.884 0.828,-0.684 1.992,-0.684 0.396,0 0.744,0.096 0.36,0.084 0.624,0.264 l -0.156,1.764 q -0.084,0.324 -0.396,0.324 -0.168,0 -0.504,-0.06 -0.336,-0.072 -0.72,-0.072 -0.564,0 -0.996,0.168 -0.432,0.156 -0.78,0.48 -0.336,0.312 -0.6,0.78 -0.264,0.456 -0.492,1.044 v 7.632 h -2.34 v -12.192 h 1.344 q 0.384,0 0.516,0.144 0.144,0.132 0.204,0.48 z"
       id="path7223" />
    <path
       d="m -150.27196,186.81601 q 0,-0.696 -0.204,-1.284 -0.192,-0.588 -0.576,-1.02 -0.384,-0.432 -0.936,-0.672 -0.552,-0.24 -1.272,-0.24 -1.476,0 -2.328,0.852 -0.84,0.852 -1.068,2.364 z m 1.932,5.712 q -0.432,0.504 -0.996,0.876 -0.564,0.36 -1.2,0.588 -0.636,0.228 -1.32,0.336 -0.672,0.108 -1.332,0.108 -1.26,0 -2.34,-0.42 -1.068,-0.432 -1.86,-1.248 -0.78,-0.828 -1.224,-2.04 -0.432,-1.224 -0.432,-2.808 0,-1.272 0.396,-2.364 0.396,-1.104 1.128,-1.92 0.744,-0.816 1.812,-1.284 1.068,-0.468 2.4,-0.468 1.116,0 2.052,0.372 0.948,0.36 1.632,1.056 0.684,0.696 1.068,1.716 0.396,1.02 0.396,2.328 0,0.54 -0.12,0.732 -0.12,0.18 -0.444,0.18 h -7.992 q 0.036,1.092 0.312,1.908 0.276,0.804 0.756,1.344 0.492,0.54 1.164,0.804 0.672,0.264 1.5,0.264 0.78,0 1.344,-0.18 0.576,-0.18 0.984,-0.384 0.42,-0.216 0.696,-0.396 0.288,-0.18 0.504,-0.18 0.288,0 0.444,0.216 z"
       id="path7225" />
    <path
       d="m -135.33197,182.07601 -4.944,12.192 h -2.112 l -4.944,-12.192 h 1.932 q 0.276,0 0.456,0.132 0.18,0.132 0.24,0.336 l 2.916,7.488 q 0.156,0.468 0.264,0.936 0.12,0.456 0.216,0.912 0.096,-0.456 0.216,-0.912 0.12,-0.456 0.288,-0.936 l 2.952,-7.488 q 0.072,-0.204 0.252,-0.336 0.18,-0.132 0.432,-0.132 z"
       id="path7227" />
    <path
       d="m -125.73198,186.81601 q 0,-0.696 -0.204,-1.284 -0.192,-0.588 -0.576,-1.02 -0.384,-0.432 -0.936,-0.672 -0.552,-0.24 -1.272,-0.24 -1.476,0 -2.328,0.852 -0.84,0.852 -1.068,2.364 z m 1.932,5.712 q -0.432,0.504 -0.996,0.876 -0.564,0.36 -1.2,0.588 -0.636,0.228 -1.32,0.336 -0.672,0.108 -1.332,0.108 -1.26,0 -2.34,-0.42 -1.068,-0.432 -1.86,-1.248 -0.78,-0.828 -1.224,-2.04 -0.432,-1.224 -0.432,-2.808 0,-1.272 0.396,-2.364 0.396,-1.104 1.128,-1.92 0.744,-0.816 1.812,-1.284 1.068,-0.468 2.4,-0.468 1.116,0 2.052,0.372 0.948,0.36 1.632,1.056 0.684,0.696 1.068,1.716 0.396,1.02 0.396,2.328 0,0.54 -0.12,0.732 -0.12,0.18 -0.444,0.18 h -7.992 q 0.036,1.092 0.312,1.908 0.276,0.804 0.756,1.344 0.492,0.54 1.164,0.804 0.672,0.264 1.5,0.264 0.78,0 1.344,-0.18 0.576,-0.18 0.984,-0.384 0.42,-0.216 0.696,-0.396 0.288,-0.18 0.504,-0.18 0.288,0 0.444,0.216 z"
       id="path7229" />
    <path
       d="m -118.7,176.55601 v 17.712 h -2.352 v -17.712 z"
       id="path7231" />
    <path
       d="m -108.812,188.85601 q -1.428,0.048 -2.424,0.228 -0.996,0.168 -1.62,0.456 -0.624,0.288 -0.9,0.684 -0.276,0.384 -0.276,0.864 0,0.456 0.144,0.792 0.156,0.324 0.408,0.54 0.264,0.204 0.612,0.3 0.348,0.096 0.756,0.096 0.54,0 0.984,-0.108 0.456,-0.108 0.852,-0.3 0.396,-0.204 0.756,-0.492 0.36,-0.288 0.708,-0.66 z m -6.864,-5.076 q 1.02,-0.972 2.208,-1.452 1.2,-0.48 2.628,-0.48 1.044,0 1.848,0.348 0.804,0.336 1.356,0.948 0.552,0.612 0.828,1.464 0.288,0.852 0.288,1.884 v 7.776 h -1.044 q -0.348,0 -0.528,-0.108 -0.18,-0.12 -0.288,-0.432 l -0.252,-1.068 q -0.468,0.432 -0.924,0.768 -0.456,0.324 -0.96,0.564 -0.492,0.228 -1.056,0.348 -0.564,0.12 -1.248,0.12 -0.72,0 -1.356,-0.192 -0.624,-0.204 -1.092,-0.612 -0.468,-0.408 -0.744,-1.02 -0.264,-0.612 -0.264,-1.428 0,-0.72 0.384,-1.38 0.396,-0.672 1.272,-1.2 0.888,-0.528 2.304,-0.864 1.428,-0.336 3.504,-0.384 v -0.888 q 0,-1.38 -0.588,-2.064 -0.588,-0.684 -1.728,-0.684 -0.768,0 -1.296,0.192 -0.516,0.192 -0.9,0.432 -0.372,0.228 -0.66,0.42 -0.276,0.192 -0.576,0.192 -0.24,0 -0.42,-0.132 -0.168,-0.132 -0.276,-0.312 z"
       id="path7233" />
    <path
       d="m -91.975995,194.26801 h -2.352 v -10.296 h -6.119995 v 7.14 q 0,0.72 0.348,1.08 0.359995,0.348 0.911995,0.348 0.324,0 0.552,-0.084 0.24,-0.084 0.408,-0.18 0.168,-0.108 0.288,-0.192 0.12,-0.084 0.216,-0.084 0.12,0 0.18,0.06 0.072,0.048 0.144,0.168 l 0.696,1.128 q -0.576,0.528 -1.368,0.816 -0.792,0.288 -1.644,0.288 -1.475995,0 -2.279995,-0.828 -0.792,-0.828 -0.792,-2.364 v -7.296 h -1.416 q -0.204,0 -0.348,-0.12 -0.132,-0.132 -0.132,-0.384 v -0.948 l 1.992,-0.276 0.516,-3.636 q 0.048,-0.204 0.18,-0.312 0.144,-0.12 0.36,-0.12 h 1.188 v 4.092 h 8.471995 z m 0.528,-16.032 q 0,0.324 -0.132,0.624 -0.132,0.288 -0.36,0.516 -0.216,0.216 -0.516,0.348 -0.3,0.12 -0.624,0.12 -0.324,0 -0.612,-0.12 -0.288,-0.132 -0.516,-0.348 -0.216,-0.228 -0.348,-0.516 -0.12,-0.3 -0.12,-0.624 0,-0.336 0.12,-0.636 0.132,-0.3 0.348,-0.516 0.228,-0.228 0.516,-0.348 0.288,-0.132 0.612,-0.132 0.324,0 0.624,0.132 0.3,0.12 0.516,0.348 0.228,0.216 0.36,0.516 0.132,0.3 0.132,0.636 z"
       id="path7235" />
    <path
       d="m -83.384014,181.88401 q 1.344,0 2.424,0.444 1.092,0.432 1.848,1.26 0.768,0.816 1.176,1.98 0.408,1.152 0.408,2.592 0,1.44 -0.408,2.604 -0.408,1.164 -1.176,1.98 -0.756,0.816 -1.848,1.26 -1.08,0.432 -2.424,0.432 -1.356,0 -2.448,-0.432 -1.08,-0.444 -1.848,-1.26 -0.768,-0.816 -1.188,-1.98 -0.408,-1.164 -0.408,-2.604 0,-1.44 0.408,-2.592 0.42,-1.164 1.188,-1.98 0.768,-0.828 1.848,-1.26 1.092,-0.444 2.448,-0.444 z m 0,10.728 q 1.728,0 2.58,-1.164 0.852,-1.164 0.852,-3.276 0,-2.112 -0.852,-3.276 -0.852,-1.176 -2.58,-1.176 -1.752,0 -2.616,1.176 -0.852,1.164 -0.852,3.276 0,2.112 0.852,3.276 0.864,1.164 2.616,1.164 z"
       id="path7237" />
    <path
       d="m -72.728008,183.76801 q 0.396,-0.42 0.828,-0.768 0.432,-0.348 0.912,-0.588 0.492,-0.252 1.044,-0.384 0.564,-0.144 1.2,-0.144 1.008,0 1.764,0.336 0.768,0.336 1.284,0.948 0.516,0.6 0.78,1.452 0.264,0.852 0.264,1.884 v 7.764 h -2.352 v -7.764 q 0,-1.308 -0.6,-2.028 -0.6,-0.732 -1.836,-0.732 -0.9,0 -1.692,0.432 -0.78,0.42 -1.452,1.152 v 8.94 h -2.34 v -12.192 h 1.404 q 0.492,0 0.612,0.468 z"
       id="path7239" />
  </g>
  <g
     aria-label="Factual information"
     id="text2391"
     style="font-weight:500;font-size:24px;line-height:0%;font-family:Lato;-inkscape-font-specification:'Lato Medium';text-anchor:middle;fill:#ffffff">
    <path
       d="m 211.67196,14.844 v 5.772 h 6.912 v 2.076 h -6.912 V 30 h -2.568 V 12.768 h 10.68 v 2.076 z"
       id="path7178"
       style="fill:#ffffff" />
    <path
       d="m 227.06797,24.588 q -1.428,0.048 -2.424,0.228 -0.996,0.168 -1.62,0.456 -0.624,0.288 -0.9,0.684 -0.276,0.384 -0.276,0.864 0,0.456 0.144,0.792 0.156,0.324 0.408,0.54 0.264,0.204 0.612,0.3 0.348,0.096 0.756,0.096 0.54,0 0.984,-0.108 0.456,-0.108 0.852,-0.3 0.396,-0.204 0.756,-0.492 0.36,-0.288 0.708,-0.66 z m -6.864,-5.076 q 1.02,-0.972 2.208,-1.452 1.2,-0.48 2.628,-0.48 1.044,0 1.848,0.348 0.804,0.336 1.356,0.948 0.552,0.612 0.828,1.464 0.288,0.852 0.288,1.884 V 30 h -1.044 q -0.348,0 -0.528,-0.108 -0.18,-0.12 -0.288,-0.432 l -0.252,-1.068 q -0.468,0.432 -0.924,0.768 -0.456,0.324 -0.96,0.564 -0.492,0.228 -1.056,0.348 -0.564,0.12 -1.248,0.12 -0.72,0 -1.356,-0.192 -0.624,-0.204 -1.092,-0.612 -0.468,-0.408 -0.744,-1.02 -0.264,-0.612 -0.264,-1.428 0,-0.72 0.384,-1.38 0.396,-0.672 1.272,-1.2 0.888,-0.528 2.304,-0.864 1.428,-0.336 3.504,-0.384 v -0.888 q 0,-1.38 -0.588,-2.064 -0.588,-0.684 -1.728,-0.684 -0.768,0 -1.296,0.192 -0.516,0.192 -0.9,0.432 -0.372,0.228 -0.66,0.42 -0.276,0.192 -0.576,0.192 -0.24,0 -0.42,-0.132 -0.168,-0.132 -0.276,-0.312 z"
       id="path7180"
       style="fill:#ffffff" />
    <path
       d="m 241.04798,20.088 q -0.108,0.132 -0.216,0.216 -0.096,0.072 -0.288,0.072 -0.192,0 -0.408,-0.144 -0.204,-0.156 -0.528,-0.324 -0.312,-0.18 -0.768,-0.324 -0.444,-0.156 -1.104,-0.156 -0.864,0 -1.524,0.312 -0.66,0.312 -1.104,0.888 -0.432,0.576 -0.66,1.404 -0.228,0.828 -0.228,1.86 0,1.068 0.24,1.908 0.24,0.828 0.684,1.404 0.444,0.564 1.08,0.864 0.636,0.288 1.416,0.288 0.756,0 1.248,-0.18 0.492,-0.192 0.816,-0.408 0.324,-0.216 0.54,-0.396 0.216,-0.192 0.444,-0.192 0.288,0 0.444,0.216 l 0.672,0.864 q -0.42,0.516 -0.948,0.876 -0.516,0.36 -1.104,0.588 -0.588,0.228 -1.236,0.336 -0.636,0.108 -1.296,0.108 -1.14,0 -2.136,-0.42 -0.984,-0.42 -1.716,-1.224 -0.72,-0.804 -1.14,-1.968 -0.42,-1.176 -0.42,-2.664 0,-1.356 0.372,-2.508 0.384,-1.152 1.116,-1.98 0.744,-0.84 1.824,-1.308 1.08,-0.48 2.472,-0.48 1.308,0 2.304,0.42 0.996,0.42 1.776,1.188 z"
       id="path7182"
       style="fill:#ffffff" />
    <path
       d="m 247.80399,30.192 q -1.476,0 -2.28,-0.828 -0.792,-0.828 -0.792,-2.364 v -7.296 h -1.416 q -0.204,0 -0.348,-0.12 -0.132,-0.132 -0.132,-0.384 v -0.948 l 1.98,-0.276 0.528,-3.636 q 0.048,-0.204 0.18,-0.312 0.144,-0.12 0.36,-0.12 h 1.188 V 18 h 3.456 v 1.704 h -3.456 v 7.14 q 0,0.72 0.348,1.08 0.36,0.348 0.912,0.348 0.324,0 0.552,-0.084 0.24,-0.084 0.408,-0.18 0.168,-0.108 0.288,-0.192 0.12,-0.084 0.216,-0.084 0.12,0 0.18,0.06 0.072,0.048 0.144,0.168 l 0.696,1.128 q -0.576,0.528 -1.368,0.816 -0.792,0.288 -1.644,0.288 z"
       id="path7184"
       style="fill:#ffffff" />
    <path
       d="M 262.81597,17.808 V 30 h -1.404 q -0.48,0 -0.624,-0.468 l -0.168,-1.224 q -0.396,0.42 -0.828,0.768 -0.432,0.348 -0.924,0.6 -0.492,0.24 -1.044,0.372 -0.552,0.144 -1.188,0.144 -1.008,0 -1.776,-0.336 -0.756,-0.336 -1.272,-0.936 -0.516,-0.612 -0.78,-1.464 -0.264,-0.852 -0.264,-1.884 v -7.764 h 2.352 v 7.764 q 0,1.308 0.6,2.04 0.6,0.72 1.836,0.72 0.9,0 1.68,-0.42 0.78,-0.432 1.464,-1.176 v -8.928 z"
       id="path7186"
       style="fill:#ffffff" />
    <path
       d="m 272.64398,24.588 q -1.428,0.048 -2.424,0.228 -0.996,0.168 -1.62,0.456 -0.624,0.288 -0.9,0.684 -0.276,0.384 -0.276,0.864 0,0.456 0.144,0.792 0.156,0.324 0.408,0.54 0.264,0.204 0.612,0.3 0.348,0.096 0.756,0.096 0.54,0 0.984,-0.108 0.456,-0.108 0.852,-0.3 0.396,-0.204 0.756,-0.492 0.36,-0.288 0.708,-0.66 z m -6.864,-5.076 q 1.02,-0.972 2.208,-1.452 1.2,-0.48 2.628,-0.48 1.044,0 1.848,0.348 0.804,0.336 1.356,0.948 0.552,0.612 0.828,1.464 0.288,0.852 0.288,1.884 V 30 h -1.044 q -0.348,0 -0.528,-0.108 -0.18,-0.12 -0.288,-0.432 l -0.252,-1.068 q -0.468,0.432 -0.924,0.768 -0.456,0.324 -0.96,0.564 -0.492,0.228 -1.056,0.348 -0.564,0.12 -1.248,0.12 -0.72,0 -1.356,-0.192 -0.624,-0.204 -1.092,-0.612 -0.468,-0.408 -0.744,-1.02 -0.264,-0.612 -0.264,-1.428 0,-0.72 0.384,-1.38 0.396,-0.672 1.272,-1.2 0.888,-0.528 2.304,-0.864 1.428,-0.336 3.504,-0.384 v -0.888 q 0,-1.38 -0.588,-2.064 -0.588,-0.684 -1.728,-0.684 -0.768,0 -1.296,0.192 -0.516,0.192 -0.9,0.432 -0.372,0.228 -0.66,0.42 -0.276,0.192 -0.576,0.192 -0.24,0 -0.42,-0.132 -0.168,-0.132 -0.276,-0.312 z"
       id="path7188"
       style="fill:#ffffff" />
    <path
       d="M 280.47998,12.288 V 30 h -2.352 V 12.288 Z"
       id="path7190"
       style="fill:#ffffff" />
    <path
       d="M 292.324,17.808 V 30 h -2.34 V 17.808 Z m 0.444,-3.768 q 0,0.324 -0.132,0.624 -0.132,0.288 -0.36,0.516 -0.216,0.216 -0.516,0.348 -0.3,0.12 -0.624,0.12 -0.324,0 -0.612,-0.12 -0.288,-0.132 -0.516,-0.348 -0.216,-0.228 -0.348,-0.516 -0.12,-0.3 -0.12,-0.624 0,-0.336 0.12,-0.624 0.132,-0.3 0.348,-0.516 0.228,-0.228 0.516,-0.348 0.288,-0.132 0.612,-0.132 0.324,0 0.624,0.132 0.3,0.12 0.516,0.348 0.228,0.216 0.36,0.516 0.132,0.288 0.132,0.624 z"
       id="path7192"
       style="fill:#ffffff" />
    <path
       d="m 297.916,19.5 q 0.396,-0.42 0.828,-0.768 0.432,-0.348 0.912,-0.588 0.492,-0.252 1.044,-0.384 0.564,-0.144 1.2,-0.144 1.008,0 1.764,0.336 0.768,0.336 1.284,0.948 0.516,0.6 0.78,1.452 0.264,0.852 0.264,1.884 V 30 h -2.352 v -7.764 q 0,-1.308 -0.6,-2.028 -0.6,-0.732 -1.836,-0.732 -0.9,0 -1.692,0.432 -0.78,0.42 -1.452,1.152 V 30 h -2.34 V 17.808 h 1.404 q 0.492,0 0.612,0.468 z"
       id="path7194"
       style="fill:#ffffff" />
    <path
       d="M 309.76,30 V 19.728 l -1.272,-0.156 q -0.276,-0.06 -0.456,-0.192 -0.168,-0.144 -0.168,-0.408 V 18 h 1.896 v -1.104 q 0,-1.044 0.3,-1.86 0.3,-0.816 0.852,-1.38 0.564,-0.576 1.344,-0.864 0.792,-0.3 1.776,-0.3 0.828,0 1.524,0.24 l -0.048,1.176 q -0.012,0.156 -0.096,0.24 -0.084,0.072 -0.228,0.108 -0.132,0.036 -0.336,0.048 -0.192,0 -0.42,0 -0.54,0 -0.984,0.132 -0.444,0.132 -0.756,0.444 -0.312,0.312 -0.48,0.828 -0.168,0.504 -0.168,1.26 V 18 h 3.42 v 1.704 h -3.348 V 30 Z"
       id="path7196"
       style="fill:#ffffff" />
    <path
       d="m 322.24005,17.616 q 1.344,0 2.424,0.444 1.092,0.432 1.848,1.26 0.768,0.816 1.176,1.98 0.408,1.152 0.408,2.592 0,1.44 -0.408,2.604 -0.408,1.164 -1.176,1.98 -0.756,0.816 -1.848,1.26 -1.08,0.432 -2.424,0.432 -1.356,0 -2.448,-0.432 -1.08,-0.444 -1.848,-1.26 -0.768,-0.816 -1.188,-1.98 -0.408,-1.164 -0.408,-2.604 0,-1.44 0.408,-2.592 0.42,-1.164 1.188,-1.98 0.768,-0.828 1.848,-1.26 1.092,-0.444 2.448,-0.444 z m 0,10.728 q 1.728,0 2.58,-1.164 0.852,-1.164 0.852,-3.276 0,-2.112 -0.852,-3.276 -0.852,-1.176 -2.58,-1.176 -1.752,0 -2.616,1.176 -0.852,1.164 -0.852,3.276 0,2.112 0.852,3.276 0.864,1.164 2.616,1.164 z"
       id="path7198"
       style="fill:#ffffff" />
    <path
       d="m 332.90805,20.148 q 0.588,-1.2 1.416,-1.884 0.828,-0.684 1.992,-0.684 0.396,0 0.744,0.096 0.36,0.084 0.624,0.264 l -0.156,1.764 q -0.084,0.324 -0.396,0.324 -0.168,0 -0.504,-0.06 -0.336,-0.072 -0.72,-0.072 -0.564,0 -0.996,0.168 -0.432,0.156 -0.78,0.48 -0.336,0.312 -0.6,0.78 -0.264,0.456 -0.492,1.044 V 30 h -2.34 V 17.808 h 1.344 q 0.384,0 0.516,0.144 0.144,0.132 0.204,0.48 z"
       id="path7200"
       style="fill:#ffffff" />
    <path
       d="M 339.49607,30 V 17.808 h 1.404 q 0.492,0 0.612,0.468 l 0.168,1.164 q 0.672,-0.804 1.488,-1.308 0.828,-0.516 1.932,-0.516 1.212,0 1.968,0.672 0.756,0.66 1.104,1.8 0.264,-0.648 0.684,-1.116 0.42,-0.468 0.936,-0.768 0.516,-0.3 1.092,-0.444 0.588,-0.144 1.188,-0.144 0.972,0 1.728,0.312 0.768,0.3 1.296,0.888 0.528,0.588 0.804,1.452 0.276,0.864 0.276,1.968 V 30 h -2.352 v -7.764 q 0,-1.368 -0.6,-2.064 -0.588,-0.696 -1.728,-0.696 -0.504,0 -0.96,0.18 -0.456,0.168 -0.804,0.516 -0.336,0.348 -0.54,0.864 -0.192,0.516 -0.192,1.2 V 30 h -2.352 v -7.764 q 0,-1.416 -0.564,-2.088 -0.564,-0.672 -1.656,-0.672 -0.756,0 -1.404,0.396 -0.648,0.396 -1.188,1.08 V 30 Z"
       id="path7202"
       style="fill:#ffffff" />
    <path
       d="m 365.88407,24.588 q -1.428,0.048 -2.424,0.228 -0.996,0.168 -1.62,0.456 -0.624,0.288 -0.9,0.684 -0.276,0.384 -0.276,0.864 0,0.456 0.144,0.792 0.156,0.324 0.408,0.54 0.264,0.204 0.612,0.3 0.348,0.096 0.756,0.096 0.54,0 0.984,-0.108 0.456,-0.108 0.852,-0.3 0.396,-0.204 0.756,-0.492 0.36,-0.288 0.708,-0.66 z m -6.864,-5.076 q 1.02,-0.972 2.208,-1.452 1.2,-0.48 2.628,-0.48 1.044,0 1.848,0.348 0.804,0.336 1.356,0.948 0.552,0.612 0.828,1.464 0.288,0.852 0.288,1.884 V 30 h -1.044 q -0.348,0 -0.528,-0.108 -0.18,-0.12 -0.288,-0.432 l -0.252,-1.068 q -0.468,0.432 -0.924,0.768 -0.456,0.324 -0.96,0.564 -0.492,0.228 -1.056,0.348 -0.564,0.12 -1.248,0.12 -0.72,0 -1.356,-0.192 -0.624,-0.204 -1.092,-0.612 -0.468,-0.408 -0.744,-1.02 -0.264,-0.612 -0.264,-1.428 0,-0.72 0.384,-1.38 0.396,-0.672 1.272,-1.2 0.888,-0.528 2.304,-0.864 1.428,-0.336 3.504,-0.384 v -0.888 q 0,-1.38 -0.588,-2.064 -0.588,-0.684 -1.728,-0.684 -0.768,0 -1.296,0.192 -0.516,0.192 -0.9,0.432 -0.372,0.228 -0.66,0.42 -0.276,0.192 -0.576,0.192 -0.24,0 -0.42,-0.132 -0.168,-0.132 -0.276,-0.312 z"
       id="path7204"
       style="fill:#ffffff" />
    <path
       d="m 382.72007,30 h -2.352 V 19.704 h -6.12 v 7.14 q 0,0.72 0.348,1.08 0.36,0.348 0.912,0.348 0.324,0 0.552,-0.084 0.24,-0.084 0.408,-0.18 0.168,-0.108 0.288,-0.192 0.12,-0.084 0.216,-0.084 0.12,0 0.18,0.06 0.072,0.048 0.144,0.168 l 0.696,1.128 q -0.576,0.528 -1.368,0.816 -0.792,0.288 -1.644,0.288 -1.476,0 -2.28,-0.828 -0.792,-0.828 -0.792,-2.364 v -7.296 h -1.416 q -0.204,0 -0.348,-0.12 -0.132,-0.132 -0.132,-0.384 v -0.948 l 1.992,-0.276 0.516,-3.636 q 0.048,-0.204 0.18,-0.312 0.144,-0.12 0.36,-0.12 h 1.188 V 18 h 8.472 z m 0.528,-16.032 q 0,0.324 -0.132,0.624 -0.132,0.288 -0.36,0.516 -0.216,0.216 -0.516,0.348 -0.3,0.12 -0.624,0.12 -0.324,0 -0.612,-0.12 -0.288,-0.132 -0.516,-0.348 -0.216,-0.228 -0.348,-0.516 -0.12,-0.3 -0.12,-0.624 0,-0.336 0.12,-0.636 0.132,-0.3 0.348,-0.516 0.228,-0.228 0.516,-0.348 0.288,-0.132 0.612,-0.132 0.324,0 0.624,0.132 0.3,0.12 0.516,0.348 0.228,0.216 0.36,0.516 0.132,0.3 0.132,0.636 z"
       id="path7206"
       style="fill:#ffffff" />
    <path
       d="m 391.31205,17.616 q 1.344,0 2.424,0.444 1.092,0.432 1.848,1.26 0.768,0.816 1.176,1.98 0.408,1.152 0.408,2.592 0,1.44 -0.408,2.604 -0.408,1.164 -1.176,1.98 -0.756,0.816 -1.848,1.26 -1.08,0.432 -2.424,0.432 -1.356,0 -2.448,-0.432 -1.08,-0.444 -1.848,-1.26 -0.768,-0.816 -1.188,-1.98 -0.408,-1.164 -0.408,-2.604 0,-1.44 0.408,-2.592 0.42,-1.164 1.188,-1.98 0.768,-0.828 1.848,-1.26 1.092,-0.444 2.448,-0.444 z m 0,10.728 q 1.728,0 2.58,-1.164 0.852,-1.164 0.852,-3.276 0,-2.112 -0.852,-3.276 -0.852,-1.176 -2.58,-1.176 -1.752,0 -2.616,1.176 -0.852,1.164 -0.852,3.276 0,2.112 0.852,3.276 0.864,1.164 2.616,1.164 z"
       id="path7208"
       style="fill:#ffffff" />
    <path
       d="m 401.96806,19.5 q 0.396,-0.42 0.828,-0.768 0.432,-0.348 0.912,-0.588 0.492,-0.252 1.044,-0.384 0.564,-0.144 1.2,-0.144 1.008,0 1.764,0.336 0.768,0.336 1.284,0.948 0.516,0.6 0.78,1.452 0.264,0.852 0.264,1.884 V 30 h -2.352 v -7.764 q 0,-1.308 -0.6,-2.028 -0.6,-0.732 -1.836,-0.732 -0.9,0 -1.692,0.432 -0.78,0.42 -1.452,1.152 V 30 h -2.34 V 17.808 h 1.404 q 0.492,0 0.612,0.468 z"
       id="path7210"
       style="fill:#ffffff" />
  </g>
  <g
     aria-label="Appeal"
     transform="rotate(90)"
     id="text2395"
     style="font-weight:500;font-size:24px;line-height:0%;font-family:Lato;-inkscape-font-specification:'Lato Medium';text-anchor:middle;fill:#ffffff">
    <path
       d="m 114.41002,-425.68801 -2.556,-6.684 q -0.276,-0.684 -0.552,-1.728 -0.132,0.516 -0.276,0.96 -0.132,0.444 -0.264,0.792 l -2.544,6.66 z m 5.052,6.42 h -1.968 q -0.336,0 -0.552,-0.168 -0.216,-0.168 -0.312,-0.432 l -1.524,-3.996 h -7.596 l -1.524,3.996 q -0.084,0.228 -0.312,0.42 -0.228,0.18 -0.552,0.18 h -1.968 l 6.864,-17.232 h 2.58 z"
       id="path7165" />
    <path
       d="m 123.42199,-422.26801 q 0.576,0.756 1.236,1.056 0.672,0.3 1.5,0.3 1.608,0 2.484,-1.152 0.888,-1.164 0.888,-3.384 0,-1.164 -0.204,-1.98 -0.192,-0.828 -0.576,-1.344 -0.372,-0.528 -0.924,-0.768 -0.552,-0.252 -1.248,-0.252 -1.02,0 -1.776,0.456 -0.744,0.456 -1.38,1.296 z m -0.12,-7.368 q 0.384,-0.456 0.816,-0.828 0.444,-0.384 0.948,-0.648 0.504,-0.276 1.068,-0.42 0.576,-0.156 1.224,-0.156 1.044,0 1.884,0.408 0.852,0.408 1.452,1.2 0.6,0.792 0.924,1.956 0.336,1.164 0.336,2.676 0,1.356 -0.372,2.52 -0.36,1.152 -1.044,2.004 -0.672,0.852 -1.656,1.344 -0.972,0.48 -2.196,0.48 -1.092,0 -1.872,-0.36 -0.78,-0.36 -1.392,-1.008 v 5.292 h -2.34 v -16.284 h 1.404 q 0.492,0 0.612,0.468 z"
       id="path7167" />
    <path
       d="m 136.92199,-422.26801 q 0.576,0.756 1.236,1.056 0.672,0.3 1.5,0.3 1.608,0 2.484,-1.152 0.888,-1.164 0.888,-3.384 0,-1.164 -0.204,-1.98 -0.192,-0.828 -0.576,-1.344 -0.372,-0.528 -0.924,-0.768 -0.552,-0.252 -1.248,-0.252 -1.02,0 -1.776,0.456 -0.744,0.456 -1.38,1.296 z m -0.12,-7.368 q 0.384,-0.456 0.816,-0.828 0.444,-0.384 0.948,-0.648 0.504,-0.276 1.068,-0.42 0.576,-0.156 1.224,-0.156 1.044,0 1.884,0.408 0.852,0.408 1.452,1.2 0.6,0.792 0.924,1.956 0.336,1.164 0.336,2.676 0,1.356 -0.372,2.52 -0.36,1.152 -1.044,2.004 -0.672,0.852 -1.656,1.344 -0.972,0.48 -2.196,0.48 -1.092,0 -1.872,-0.36 -0.78,-0.36 -1.392,-1.008 v 5.292 h -2.34 v -16.284 h 1.404 q 0.492,0 0.612,0.468 z"
       id="path7169" />
    <path
       d="m 156.15799,-426.72001 q 0,-0.696 -0.204,-1.284 -0.192,-0.588 -0.576,-1.02 -0.384,-0.432 -0.936,-0.672 -0.552,-0.24 -1.272,-0.24 -1.476,0 -2.328,0.852 -0.84,0.852 -1.068,2.364 z m 1.932,5.712 q -0.432,0.504 -0.996,0.876 -0.564,0.36 -1.2,0.588 -0.636,0.228 -1.32,0.336 -0.672,0.108 -1.332,0.108 -1.26,0 -2.34,-0.42 -1.068,-0.432 -1.86,-1.248 -0.78,-0.828 -1.224,-2.04 -0.432,-1.224 -0.432,-2.808 0,-1.272 0.396,-2.364 0.396,-1.104 1.128,-1.92 0.744,-0.816 1.812,-1.284 1.068,-0.468 2.4,-0.468 1.116,0 2.052,0.372 0.948,0.36 1.632,1.056 0.684,0.696 1.068,1.716 0.396,1.02 0.396,2.328 0,0.54 -0.12,0.732 -0.12,0.18 -0.444,0.18 h -7.992 q 0.036,1.092 0.312,1.908 0.276,0.804 0.756,1.344 0.492,0.54 1.164,0.804 0.672,0.264 1.5,0.264 0.78,0 1.344,-0.18 0.576,-0.18 0.984,-0.384 0.42,-0.216 0.696,-0.396 0.288,-0.18 0.504,-0.18 0.288,0 0.444,0.216 z"
       id="path7171" />
    <path
       d="m 167.34197,-424.68001 q -1.428,0.048 -2.424,0.228 -0.996,0.168 -1.62,0.456 -0.624,0.288 -0.9,0.684 -0.276,0.384 -0.276,0.864 0,0.456 0.144,0.792 0.156,0.324 0.408,0.54 0.264,0.204 0.612,0.3 0.348,0.096 0.756,0.096 0.54,0 0.984,-0.108 0.456,-0.108 0.852,-0.3 0.396,-0.204 0.756,-0.492 0.36,-0.288 0.708,-0.66 z m -6.864,-5.076 q 1.02,-0.972 2.208,-1.452 1.2,-0.48 2.628,-0.48 1.044,0 1.848,0.348 0.804,0.336 1.356,0.948 0.552,0.612 0.828,1.464 0.288,0.852 0.288,1.884 v 7.776 h -1.044 q -0.348,0 -0.528,-0.108 -0.18,-0.12 -0.288,-0.432 l -0.252,-1.068 q -0.468,0.432 -0.924,0.768 -0.456,0.324 -0.96,0.564 -0.492,0.228 -1.056,0.348 -0.564,0.12 -1.248,0.12 -0.72,0 -1.356,-0.192 -0.624,-0.204 -1.092,-0.612 -0.468,-0.408 -0.744,-1.02 -0.264,-0.612 -0.264,-1.428 0,-0.72 0.384,-1.38 0.396,-0.672 1.272,-1.2 0.888,-0.528 2.304,-0.864 1.428,-0.336 3.504,-0.384 v -0.888 q 0,-1.38 -0.588,-2.064 -0.588,-0.684 -1.728,-0.684 -0.768,0 -1.296,0.192 -0.516,0.192 -0.9,0.432 -0.372,0.228 -0.66,0.42 -0.276,0.192 -0.576,0.192 -0.24,0 -0.42,-0.132 -0.168,-0.132 -0.276,-0.312 z"
       id="path7173" />
    <path
       d="m 175.17797,-436.98001 v 17.712 h -2.352 v -17.712 z"
       id="path7175" />
  </g>
  <g
     aria-label="Relationship"
     id="text2403"
     style="font-weight:500;font-size:24px;line-height:0%;font-family:Lato;-inkscape-font-specification:'Lato Medium';text-anchor:middle">
    <path
       d="m 251.35003,261.072 q 0.984,0 1.728,-0.24 0.756,-0.24 1.26,-0.672 0.504,-0.444 0.756,-1.044 0.252,-0.612 0.252,-1.344 0,-1.488 -0.984,-2.244 -0.972,-0.756 -2.928,-0.756 h -2.412 v 6.3 z m 8.04,8.928 h -2.28 q -0.684,0 -0.996,-0.54 l -4.26,-5.976 q -0.204,-0.3 -0.444,-0.42 -0.24,-0.132 -0.72,-0.132 h -1.668 V 270 h -2.556 v -17.232 h 4.968 q 1.668,0 2.868,0.348 1.212,0.336 1.992,0.972 0.792,0.624 1.164,1.512 0.384,0.888 0.384,1.992 0,0.9 -0.276,1.692 -0.276,0.792 -0.816,1.428 -0.528,0.624 -1.296,1.08 -0.768,0.456 -1.74,0.696 0.48,0.288 0.828,0.804 z"
       id="path7142" />
    <path
       d="m 268.40203,262.548 q 0,-0.696 -0.204,-1.284 -0.192,-0.588 -0.576,-1.02 -0.384,-0.432 -0.936,-0.672 -0.552,-0.24 -1.272,-0.24 -1.476,0 -2.328,0.852 -0.84,0.852 -1.068,2.364 z m 1.932,5.712 q -0.432,0.504 -0.996,0.876 -0.564,0.36 -1.2,0.588 -0.636,0.228 -1.32,0.336 -0.672,0.108 -1.332,0.108 -1.26,0 -2.34,-0.42 -1.068,-0.432 -1.86,-1.248 -0.78,-0.828 -1.224,-2.04 -0.432,-1.224 -0.432,-2.808 0,-1.272 0.396,-2.364 0.396,-1.104 1.128,-1.92 0.744,-0.816 1.812,-1.284 1.068,-0.468 2.4,-0.468 1.116,0 2.052,0.372 0.948,0.36 1.632,1.056 0.684,0.696 1.068,1.716 0.396,1.02 0.396,2.328 0,0.54 -0.12,0.732 -0.12,0.18 -0.444,0.18 h -7.992 q 0.036,1.092 0.312,1.908 0.276,0.804 0.756,1.344 0.492,0.54 1.164,0.804 0.672,0.264 1.5,0.264 0.78,0 1.344,-0.18 0.576,-0.18 0.984,-0.384 0.42,-0.216 0.696,-0.396 0.288,-0.18 0.504,-0.18 0.288,0 0.444,0.216 z"
       id="path7144" />
    <path
       d="M 275.43401,252.288 V 270 h -2.352 v -17.712 z"
       id="path7146" />
    <path
       d="m 285.32201,264.588 q -1.428,0.048 -2.424,0.228 -0.996,0.168 -1.62,0.456 -0.624,0.288 -0.9,0.684 -0.276,0.384 -0.276,0.864 0,0.456 0.144,0.792 0.156,0.324 0.408,0.54 0.264,0.204 0.612,0.3 0.348,0.096 0.756,0.096 0.54,0 0.984,-0.108 0.456,-0.108 0.852,-0.3 0.396,-0.204 0.756,-0.492 0.36,-0.288 0.708,-0.66 z m -6.864,-5.076 q 1.02,-0.972 2.208,-1.452 1.2,-0.48 2.628,-0.48 1.044,0 1.848,0.348 0.804,0.336 1.356,0.948 0.552,0.612 0.828,1.464 0.288,0.852 0.288,1.884 V 270 h -1.044 q -0.348,0 -0.528,-0.108 -0.18,-0.12 -0.288,-0.432 l -0.252,-1.068 q -0.468,0.432 -0.924,0.768 -0.456,0.324 -0.96,0.564 -0.492,0.228 -1.056,0.348 -0.564,0.12 -1.248,0.12 -0.72,0 -1.356,-0.192 -0.624,-0.204 -1.092,-0.612 -0.468,-0.408 -0.744,-1.02 -0.264,-0.612 -0.264,-1.428 0,-0.72 0.384,-1.38 0.396,-0.672 1.272,-1.2 0.888,-0.528 2.304,-0.864 1.428,-0.336 3.504,-0.384 v -0.888 q 0,-1.38 -0.588,-2.064 -0.588,-0.684 -1.728,-0.684 -0.768,0 -1.296,0.192 -0.516,0.192 -0.9,0.432 -0.372,0.228 -0.66,0.42 -0.276,0.192 -0.576,0.192 -0.24,0 -0.42,-0.132 -0.168,-0.132 -0.276,-0.312 z"
       id="path7148" />
    <path
       d="m 302.15802,270 h -2.352 v -10.296 h -6.12 v 7.14 q 0,0.72 0.348,1.08 0.36,0.348 0.912,0.348 0.324,0 0.552,-0.084 0.24,-0.084 0.408,-0.18 0.168,-0.108 0.288,-0.192 0.12,-0.084 0.216,-0.084 0.12,0 0.18,0.06 0.072,0.048 0.144,0.168 l 0.696,1.128 q -0.576,0.528 -1.368,0.816 -0.792,0.288 -1.644,0.288 -1.476,0 -2.28,-0.828 -0.792,-0.828 -0.792,-2.364 v -7.296 h -1.416 q -0.204,0 -0.348,-0.12 -0.132,-0.132 -0.132,-0.384 v -0.948 l 1.992,-0.276 0.516,-3.636 q 0.048,-0.204 0.18,-0.312 0.144,-0.12 0.36,-0.12 h 1.188 V 258 h 8.472 z m 0.528,-16.032 q 0,0.324 -0.132,0.624 -0.132,0.288 -0.36,0.516 -0.216,0.216 -0.516,0.348 -0.3,0.12 -0.624,0.12 -0.324,0 -0.612,-0.12 -0.288,-0.132 -0.516,-0.348 -0.216,-0.228 -0.348,-0.516 -0.12,-0.3 -0.12,-0.624 0,-0.336 0.12,-0.636 0.132,-0.3 0.348,-0.516 0.228,-0.228 0.516,-0.348 0.288,-0.132 0.612,-0.132 0.324,0 0.624,0.132 0.3,0.12 0.516,0.348 0.228,0.216 0.36,0.516 0.132,0.3 0.132,0.636 z"
       id="path7150" />
    <path
       d="m 310.75,257.616 q 1.344,0 2.424,0.444 1.092,0.432 1.848,1.26 0.768,0.816 1.176,1.98 0.408,1.152 0.408,2.592 0,1.44 -0.408,2.604 -0.408,1.164 -1.176,1.98 -0.756,0.816 -1.848,1.26 -1.08,0.432 -2.424,0.432 -1.356,0 -2.448,-0.432 -1.08,-0.444 -1.848,-1.26 -0.768,-0.816 -1.188,-1.98 -0.408,-1.164 -0.408,-2.604 0,-1.44 0.408,-2.592 0.42,-1.164 1.188,-1.98 0.768,-0.828 1.848,-1.26 1.092,-0.444 2.448,-0.444 z m 0,10.728 q 1.728,0 2.58,-1.164 0.852,-1.164 0.852,-3.276 0,-2.112 -0.852,-3.276 -0.852,-1.176 -2.58,-1.176 -1.752,0 -2.616,1.176 -0.852,1.164 -0.852,3.276 0,2.112 0.852,3.276 0.864,1.164 2.616,1.164 z"
       id="path7152" />
    <path
       d="m 321.406,259.5 q 0.396,-0.42 0.828,-0.768 0.432,-0.348 0.912,-0.588 0.492,-0.252 1.044,-0.384 0.564,-0.144 1.2,-0.144 1.008,0 1.764,0.336 0.768,0.336 1.284,0.948 0.516,0.6 0.78,1.452 0.264,0.852 0.264,1.884 V 270 h -2.352 v -7.764 q 0,-1.308 -0.6,-2.028 -0.6,-0.732 -1.836,-0.732 -0.9,0 -1.692,0.432 -0.78,0.42 -1.452,1.152 V 270 h -2.34 v -12.192 h 1.404 q 0.492,0 0.612,0.468 z"
       id="path7154" />
    <path
       d="m 339.826,259.908 q -0.096,0.156 -0.204,0.228 -0.108,0.06 -0.276,0.06 -0.192,0 -0.432,-0.132 -0.228,-0.132 -0.564,-0.288 -0.324,-0.156 -0.768,-0.288 -0.444,-0.132 -1.056,-0.132 -0.504,0 -0.924,0.132 -0.408,0.12 -0.696,0.348 -0.288,0.216 -0.444,0.528 -0.156,0.3 -0.156,0.648 0,0.456 0.264,0.756 0.276,0.3 0.708,0.516 0.444,0.216 0.996,0.396 0.564,0.168 1.14,0.36 0.588,0.192 1.14,0.444 0.564,0.24 0.996,0.612 0.444,0.36 0.708,0.876 0.276,0.516 0.276,1.26 0,0.852 -0.312,1.584 -0.3,0.72 -0.9,1.248 -0.588,0.528 -1.464,0.828 -0.876,0.3 -2.004,0.3 -1.26,0 -2.328,-0.42 -1.068,-0.42 -1.788,-1.068 l 0.552,-0.9 q 0.096,-0.168 0.24,-0.252 0.144,-0.096 0.384,-0.096 0.228,0 0.468,0.168 0.24,0.168 0.576,0.372 0.336,0.192 0.816,0.36 0.48,0.156 1.2,0.156 0.6,0 1.044,-0.144 0.444,-0.156 0.732,-0.408 0.3,-0.264 0.444,-0.6 0.144,-0.336 0.144,-0.708 0,-0.48 -0.276,-0.792 -0.264,-0.324 -0.708,-0.552 -0.432,-0.228 -0.996,-0.396 -0.564,-0.168 -1.152,-0.36 -0.588,-0.192 -1.152,-0.444 -0.564,-0.252 -1.008,-0.636 -0.432,-0.384 -0.708,-0.936 -0.264,-0.552 -0.264,-1.344 0,-0.708 0.288,-1.356 0.3,-0.648 0.852,-1.14 0.564,-0.492 1.38,-0.78 0.828,-0.3 1.884,-0.3 1.212,0 2.184,0.384 0.984,0.384 1.68,1.056 z"
       id="path7156" />
    <path
       d="m 345.40599,259.356 q 0.768,-0.78 1.692,-1.26 0.936,-0.48 2.148,-0.48 1.008,0 1.764,0.336 0.768,0.336 1.284,0.948 0.516,0.6 0.78,1.452 0.264,0.852 0.264,1.884 V 270 h -2.352 v -7.764 q 0,-1.308 -0.6,-2.028 -0.6,-0.732 -1.836,-0.732 -0.9,0 -1.692,0.432 -0.78,0.42 -1.452,1.152 V 270 h -2.34 v -17.712 h 2.34 z"
       id="path7158" />
    <path
       d="M 358.94198,257.808 V 270 h -2.34 v -12.192 z m 0.444,-3.768 q 0,0.324 -0.132,0.624 -0.132,0.288 -0.36,0.516 -0.216,0.216 -0.516,0.348 -0.3,0.12 -0.624,0.12 -0.324,0 -0.612,-0.12 -0.288,-0.132 -0.516,-0.348 -0.216,-0.228 -0.348,-0.516 -0.12,-0.3 -0.12,-0.624 0,-0.336 0.12,-0.624 0.132,-0.3 0.348,-0.516 0.228,-0.228 0.516,-0.348 0.288,-0.132 0.612,-0.132 0.324,0 0.624,0.132 0.3,0.12 0.516,0.348 0.228,0.216 0.36,0.516 0.132,0.288 0.132,0.624 z"
       id="path7160" />
    <path
       d="m 364.67798,267 q 0.576,0.756 1.236,1.056 0.672,0.3 1.5,0.3 1.608,0 2.484,-1.152 0.888,-1.164 0.888,-3.384 0,-1.164 -0.204,-1.98 -0.192,-0.828 -0.576,-1.344 -0.372,-0.528 -0.924,-0.768 -0.552,-0.252 -1.248,-0.252 -1.02,0 -1.776,0.456 -0.744,0.456 -1.38,1.296 z m -0.12,-7.368 q 0.384,-0.456 0.816,-0.828 0.444,-0.384 0.948,-0.648 0.504,-0.276 1.068,-0.42 0.576,-0.156 1.224,-0.156 1.044,0 1.884,0.408 0.852,0.408 1.452,1.2 0.6,0.792 0.924,1.956 0.336,1.164 0.336,2.676 0,1.356 -0.372,2.52 -0.36,1.152 -1.044,2.004 -0.672,0.852 -1.656,1.344 -0.972,0.48 -2.196,0.48 -1.092,0 -1.872,-0.36 -0.78,-0.36 -1.392,-1.008 v 5.292 h -2.34 v -16.284 h 1.404 q 0.492,0 0.612,0.468 z"
       id="path7162" />
  </g>
  <g
     aria-label="Message"
     id="text2402"
     style="font-weight:500;font-size:24px;line-height:0%;font-family:Lato;-inkscape-font-specification:'Lato Medium';text-anchor:middle">
    <path
       d="M 283.21001,132.768 V 150 h -2.232 v -12.264 q 0,-0.276 0.012,-0.588 0.024,-0.312 0.048,-0.636 l -5.736,10.524 q -0.3,0.588 -0.924,0.588 h -0.36 q -0.624,0 -0.912,-0.588 l -5.844,-10.56 q 0.072,0.672 0.072,1.26 V 150 h -2.244 v -17.232 h 1.896 q 0.336,0 0.516,0.072 0.192,0.06 0.36,0.36 l 5.76,10.32 q 0.168,0.312 0.312,0.66 0.144,0.348 0.276,0.696 0.252,-0.708 0.588,-1.368 l 5.652,-10.308 q 0.156,-0.3 0.336,-0.36 0.192,-0.072 0.528,-0.072 z"
       id="path7127" />
    <path
       d="m 294.69405,142.548 q 0,-0.696 -0.204,-1.284 -0.192,-0.588 -0.576,-1.02 -0.384,-0.432 -0.936,-0.672 -0.552,-0.24 -1.272,-0.24 -1.476,0 -2.328,0.852 -0.84,0.852 -1.068,2.364 z m 1.932,5.712 q -0.432,0.504 -0.996,0.876 -0.564,0.36 -1.2,0.588 -0.636,0.228 -1.32,0.336 -0.672,0.108 -1.332,0.108 -1.26,0 -2.34,-0.42 -1.068,-0.432 -1.86,-1.248 -0.78,-0.828 -1.224,-2.04 -0.432,-1.224 -0.432,-2.808 0,-1.272 0.396,-2.364 0.396,-1.104 1.128,-1.92 0.744,-0.816 1.812,-1.284 1.068,-0.468 2.4,-0.468 1.116,0 2.052,0.372 0.948,0.36 1.632,1.056 0.684,0.696 1.068,1.716 0.396,1.02 0.396,2.328 0,0.54 -0.12,0.732 -0.12,0.18 -0.444,0.18 h -7.992 q 0.036,1.092 0.312,1.908 0.276,0.804 0.756,1.344 0.492,0.54 1.164,0.804 0.672,0.264 1.5,0.264 0.78,0 1.344,-0.18 0.576,-0.18 0.984,-0.384 0.42,-0.216 0.696,-0.396 0.288,-0.18 0.504,-0.18 0.288,0 0.444,0.216 z"
       id="path7129" />
    <path
       d="m 306.51403,139.908 q -0.096,0.156 -0.204,0.228 -0.108,0.06 -0.276,0.06 -0.192,0 -0.432,-0.132 -0.228,-0.132 -0.564,-0.288 -0.324,-0.156 -0.768,-0.288 -0.444,-0.132 -1.056,-0.132 -0.504,0 -0.924,0.132 -0.408,0.12 -0.696,0.348 -0.288,0.216 -0.444,0.528 -0.156,0.3 -0.156,0.648 0,0.456 0.264,0.756 0.276,0.3 0.708,0.516 0.444,0.216 0.996,0.396 0.564,0.168 1.14,0.36 0.588,0.192 1.14,0.444 0.564,0.24 0.996,0.612 0.444,0.36 0.708,0.876 0.276,0.516 0.276,1.26 0,0.852 -0.312,1.584 -0.3,0.72 -0.9,1.248 -0.588,0.528 -1.464,0.828 -0.876,0.3 -2.004,0.3 -1.26,0 -2.328,-0.42 -1.068,-0.42 -1.788,-1.068 l 0.552,-0.9 q 0.096,-0.168 0.24,-0.252 0.144,-0.096 0.384,-0.096 0.228,0 0.468,0.168 0.24,0.168 0.576,0.372 0.336,0.192 0.816,0.36 0.48,0.156 1.2,0.156 0.6,0 1.044,-0.144 0.444,-0.156 0.732,-0.408 0.3,-0.264 0.444,-0.6 0.144,-0.336 0.144,-0.708 0,-0.48 -0.276,-0.792 -0.264,-0.324 -0.708,-0.552 -0.432,-0.228 -0.996,-0.396 -0.564,-0.168 -1.152,-0.36 -0.588,-0.192 -1.152,-0.444 -0.564,-0.252 -1.008,-0.636 -0.432,-0.384 -0.708,-0.936 -0.264,-0.552 -0.264,-1.344 0,-0.708 0.288,-1.356 0.3,-0.648 0.852,-1.14 0.564,-0.492 1.38,-0.78 0.828,-0.3 1.884,-0.3 1.212,0 2.184,0.384 0.984,0.384 1.68,1.056 z"
       id="path7131" />
    <path
       d="m 316.94202,139.908 q -0.096,0.156 -0.204,0.228 -0.108,0.06 -0.276,0.06 -0.192,0 -0.432,-0.132 -0.228,-0.132 -0.564,-0.288 -0.324,-0.156 -0.768,-0.288 -0.444,-0.132 -1.056,-0.132 -0.504,0 -0.924,0.132 -0.408,0.12 -0.696,0.348 -0.288,0.216 -0.444,0.528 -0.156,0.3 -0.156,0.648 0,0.456 0.264,0.756 0.276,0.3 0.708,0.516 0.444,0.216 0.996,0.396 0.564,0.168 1.14,0.36 0.588,0.192 1.14,0.444 0.564,0.24 0.996,0.612 0.444,0.36 0.708,0.876 0.276,0.516 0.276,1.26 0,0.852 -0.312,1.584 -0.3,0.72 -0.9,1.248 -0.588,0.528 -1.464,0.828 -0.876,0.3 -2.004,0.3 -1.26,0 -2.328,-0.42 -1.068,-0.42 -1.788,-1.068 l 0.552,-0.9 q 0.096,-0.168 0.24,-0.252 0.144,-0.096 0.384,-0.096 0.228,0 0.468,0.168 0.24,0.168 0.576,0.372 0.336,0.192 0.816,0.36 0.48,0.156 1.2,0.156 0.6,0 1.044,-0.144 0.444,-0.156 0.732,-0.408 0.3,-0.264 0.444,-0.6 0.144,-0.336 0.144,-0.708 0,-0.48 -0.276,-0.792 -0.264,-0.324 -0.708,-0.552 -0.432,-0.228 -0.996,-0.396 -0.564,-0.168 -1.152,-0.36 -0.588,-0.192 -1.152,-0.444 -0.564,-0.252 -1.008,-0.636 -0.432,-0.384 -0.708,-0.936 -0.264,-0.552 -0.264,-1.344 0,-0.708 0.288,-1.356 0.3,-0.648 0.852,-1.14 0.564,-0.492 1.38,-0.78 0.828,-0.3 1.884,-0.3 1.212,0 2.184,0.384 0.984,0.384 1.68,1.056 z"
       id="path7133" />
    <path
       d="m 326.73402,144.588 q -1.428,0.048 -2.424,0.228 -0.996,0.168 -1.62,0.456 -0.624,0.288 -0.9,0.684 -0.276,0.384 -0.276,0.864 0,0.456 0.144,0.792 0.156,0.324 0.408,0.54 0.264,0.204 0.612,0.3 0.348,0.096 0.756,0.096 0.54,0 0.984,-0.108 0.456,-0.108 0.852,-0.3 0.396,-0.204 0.756,-0.492 0.36,-0.288 0.708,-0.66 z m -6.864,-5.076 q 1.02,-0.972 2.208,-1.452 1.2,-0.48 2.628,-0.48 1.044,0 1.848,0.348 0.804,0.336 1.356,0.948 0.552,0.612 0.828,1.464 0.288,0.852 0.288,1.884 V 150 h -1.044 q -0.348,0 -0.528,-0.108 -0.18,-0.12 -0.288,-0.432 l -0.252,-1.068 q -0.468,0.432 -0.924,0.768 -0.456,0.324 -0.96,0.564 -0.492,0.228 -1.056,0.348 -0.564,0.12 -1.248,0.12 -0.72,0 -1.356,-0.192 -0.624,-0.204 -1.092,-0.612 -0.468,-0.408 -0.744,-1.02 -0.264,-0.612 -0.264,-1.428 0,-0.72 0.384,-1.38 0.396,-0.672 1.272,-1.2 0.888,-0.528 2.304,-0.864 1.428,-0.336 3.504,-0.384 v -0.888 q 0,-1.38 -0.588,-2.064 -0.588,-0.684 -1.728,-0.684 -0.768,0 -1.296,0.192 -0.516,0.192 -0.9,0.432 -0.372,0.228 -0.66,0.42 -0.276,0.192 -0.576,0.192 -0.24,0 -0.42,-0.132 -0.168,-0.132 -0.276,-0.312 z"
       id="path7135" />
    <path
       d="m 336.45402,143.916 q 0.624,0 1.092,-0.168 0.48,-0.168 0.792,-0.468 0.324,-0.312 0.48,-0.744 0.168,-0.432 0.168,-0.948 0,-1.056 -0.648,-1.68 -0.636,-0.636 -1.884,-0.636 -1.236,0 -1.884,0.636 -0.636,0.624 -0.636,1.68 0,0.516 0.156,0.948 0.168,0.42 0.48,0.732 0.324,0.3 0.792,0.48 0.48,0.168 1.092,0.168 z m 3.732,6.72 q 0,-0.432 -0.24,-0.684 -0.24,-0.264 -0.66,-0.408 -0.408,-0.156 -0.96,-0.216 -0.552,-0.072 -1.164,-0.108 -0.6,-0.036 -1.236,-0.06 -0.636,-0.036 -1.224,-0.12 -0.624,0.312 -1.032,0.756 -0.396,0.444 -0.396,1.044 0,0.384 0.192,0.72 0.204,0.336 0.612,0.576 0.42,0.252 1.044,0.384 0.636,0.144 1.512,0.144 0.864,0 1.524,-0.156 0.66,-0.144 1.104,-0.42 0.456,-0.264 0.684,-0.636 0.24,-0.372 0.24,-0.816 z m 2.376,-12.372 v 0.876 q 0,0.432 -0.54,0.54 l -1.308,0.192 q 0.168,0.372 0.264,0.792 0.096,0.408 0.096,0.864 0,0.9 -0.348,1.632 -0.348,0.72 -0.96,1.236 -0.612,0.516 -1.464,0.792 -0.84,0.276 -1.848,0.276 -0.828,0 -1.548,-0.18 -0.36,0.216 -0.552,0.48 -0.18,0.252 -0.18,0.504 0,0.42 0.348,0.624 0.36,0.204 0.924,0.3 0.576,0.084 1.308,0.108 0.744,0.024 1.5,0.084 0.768,0.048 1.5,0.192 0.744,0.132 1.308,0.444 0.576,0.3 0.924,0.84 0.36,0.528 0.36,1.38 0,0.792 -0.396,1.536 -0.384,0.744 -1.128,1.32 -0.744,0.576 -1.812,0.924 -1.068,0.348 -2.424,0.348 -1.356,0 -2.364,-0.264 -0.996,-0.264 -1.668,-0.708 -0.66,-0.444 -0.996,-1.032 -0.324,-0.588 -0.324,-1.224 0,-0.888 0.552,-1.5 0.552,-0.624 1.524,-0.972 -0.528,-0.24 -0.84,-0.648 -0.312,-0.42 -0.312,-1.104 0,-0.264 0.096,-0.54 0.096,-0.288 0.288,-0.564 0.204,-0.288 0.492,-0.54 0.3,-0.252 0.684,-0.456 -0.9,-0.504 -1.416,-1.332 -0.516,-0.84 -0.516,-1.956 0,-0.9 0.348,-1.62 0.348,-0.72 0.96,-1.236 0.624,-0.516 1.476,-0.792 0.864,-0.276 1.884,-0.276 1.584,0 2.724,0.66 z"
       id="path7137" />
    <path
       d="m 352.58202,142.548 q 0,-0.696 -0.204,-1.284 -0.192,-0.588 -0.576,-1.02 -0.384,-0.432 -0.936,-0.672 -0.552,-0.24 -1.272,-0.24 -1.476,0 -2.328,0.852 -0.84,0.852 -1.068,2.364 z m 1.932,5.712 q -0.432,0.504 -0.996,0.876 -0.564,0.36 -1.2,0.588 -0.636,0.228 -1.32,0.336 -0.672,0.108 -1.332,0.108 -1.26,0 -2.34,-0.42 -1.068,-0.432 -1.86,-1.248 -0.78,-0.828 -1.224,-2.04 -0.432,-1.224 -0.432,-2.808 0,-1.272 0.396,-2.364 0.396,-1.104 1.128,-1.92 0.744,-0.816 1.812,-1.284 1.068,-0.468 2.4,-0.468 1.116,0 2.052,0.372 0.948,0.36 1.632,1.056 0.684,0.696 1.068,1.716 0.396,1.02 0.396,2.328 0,0.54 -0.12,0.732 -0.12,0.18 -0.444,0.18 h -7.992 q 0.036,1.092 0.312,1.908 0.276,0.804 0.756,1.344 0.492,0.54 1.164,0.804 0.672,0.264 1.5,0.264 0.78,0 1.344,-0.18 0.576,-0.18 0.984,-0.384 0.42,-0.216 0.696,-0.396 0.288,-0.18 0.504,-0.18 0.288,0 0.444,0.216 z"
       id="path7139" />
  </g>
  <g
     aria-label="Sender"
     id="text3175"
     style="font-weight:500;font-size:24px;line-height:0%;font-family:Lato;-inkscape-font-specification:'Lato Medium'">
    <path
       d="m 10.308,135.576 q -0.12,0.204 -0.252,0.3 -0.132,0.096 -0.336,0.096 -0.216,0 -0.492,-0.192 -0.276,-0.204 -0.696,-0.444 -0.408,-0.252 -0.984,-0.444 -0.576,-0.204 -1.38,-0.204 -0.756,0 -1.332,0.204 -0.564,0.192 -0.948,0.54 -0.384,0.336 -0.588,0.804 -0.192,0.456 -0.192,0.996 0,0.696 0.348,1.152 0.36,0.456 0.936,0.78 0.576,0.324 1.308,0.564 0.732,0.24 1.5,0.504 0.768,0.252 1.5,0.588 0.732,0.336 1.308,0.852 0.576,0.504 0.924,1.248 0.36,0.732 0.36,1.8 0,1.14 -0.396,2.136 -0.384,0.996 -1.128,1.74 -0.744,0.744 -1.836,1.176 -1.08,0.42 -2.46,0.42 -0.828,0 -1.608,-0.168 -0.78,-0.156 -1.476,-0.444 -0.696,-0.3 -1.308,-0.708 -0.59999999,-0.42 -1.08,-0.936 l 0.73200001,-1.224 q 0.108,-0.144 0.252,-0.24 Q 1.14,146.376 1.332,146.376 q 0.252,0 0.576,0.264 0.336,0.264 0.816,0.588 0.492,0.312 1.164,0.576 0.684,0.264 1.656,0.264 0.792,0 1.416,-0.204 0.624,-0.216 1.044,-0.6 0.432,-0.396 0.66,-0.948 0.228,-0.552 0.228,-1.224 0,-0.756 -0.348,-1.236 -0.348,-0.48 -0.924,-0.804 -0.576,-0.324 -1.308,-0.552 -0.732,-0.228 -1.5,-0.468 -0.768,-0.252 -1.5,-0.576 -0.732,-0.324 -1.308,-0.84 -0.576,-0.528 -0.924,-1.308 -0.34799999,-0.792 -0.34799999,-1.944 0,-0.924 0.35999999,-1.788 0.36,-0.864 1.044,-1.524 0.696,-0.672 1.704,-1.068 1.008,-0.408 2.304,-0.408 1.452,0 2.664,0.468 1.224,0.456 2.124,1.32 z"
       id="path7114" />
    <path
       d="m 21.984002,142.548 q 0,-0.696 -0.204,-1.284 -0.192,-0.588 -0.576,-1.02 -0.384,-0.432 -0.936,-0.672 -0.552,-0.24 -1.272,-0.24 -1.476,0 -2.328,0.852 -0.84,0.852 -1.068,2.364 z m 1.932,5.712 q -0.432,0.504 -0.996,0.876 -0.564,0.36 -1.2,0.588 -0.636,0.228 -1.32,0.336 -0.672,0.108 -1.332,0.108 -1.26,0 -2.34,-0.42 -1.068,-0.432 -1.86,-1.248 -0.78,-0.828 -1.224,-2.04 -0.432,-1.224 -0.432,-2.808 0,-1.272 0.396,-2.364 0.396,-1.104 1.128,-1.92 0.744,-0.816 1.812,-1.284 1.068,-0.468 2.4,-0.468 1.116,0 2.052,0.372 0.948,0.36 1.632,1.056 0.684,0.696 1.068,1.716 0.396,1.02 0.396,2.328 0,0.54 -0.12,0.732 -0.12,0.18 -0.444,0.18 h -7.992 q 0.036,1.092 0.312,1.908 0.276,0.804 0.756,1.344 0.492,0.54 1.164,0.804 0.672,0.264 1.5,0.264 0.78,0 1.344,-0.18 0.576,-0.18 0.984,-0.384 0.42,-0.216 0.696,-0.396 0.288,-0.18 0.504,-0.18 0.288,0 0.444,0.216 z"
       id="path7116" />
    <path
       d="m 28.811979,139.5 q 0.396,-0.42 0.828,-0.768 0.432,-0.348 0.912,-0.588 0.492,-0.252 1.044,-0.384 0.564,-0.144 1.2,-0.144 1.008,0 1.764,0.336 0.768,0.336 1.284,0.948 0.516,0.6 0.78,1.452 0.264,0.852 0.264,1.884 V 150 h -2.352 v -7.764 q 0,-1.308 -0.6,-2.028 -0.6,-0.732 -1.836,-0.732 -0.9,0 -1.692,0.432 -0.78,0.42 -1.452,1.152 V 150 h -2.34 v -12.192 h 1.404 q 0.492,0 0.612,0.468 z"
       id="path7118" />
    <path
       d="m 47.903973,140.76 q -0.576,-0.756 -1.248,-1.056 -0.66,-0.3 -1.488,-0.3 -1.608,0 -2.496,1.164 -0.876,1.152 -0.876,3.372 0,1.164 0.192,1.992 0.204,0.816 0.576,1.344 0.384,0.516 0.936,0.768 0.552,0.24 1.248,0.24 1.02,0 1.764,-0.456 0.744,-0.456 1.392,-1.284 z m 2.352,-8.472 V 150 h -1.416 q -0.492,0 -0.612,-0.468 l -0.204,-1.404 q -0.78,0.924 -1.776,1.488 -0.984,0.552 -2.28,0.552 -1.044,0 -1.896,-0.408 -0.84,-0.408 -1.44,-1.188 -0.6,-0.792 -0.924,-1.956 -0.324,-1.164 -0.324,-2.676 0,-1.356 0.36,-2.52 0.36,-1.164 1.044,-2.016 0.684,-0.852 1.656,-1.332 0.972,-0.492 2.196,-0.492 1.104,0 1.872,0.36 0.78,0.36 1.392,1.02 v -6.672 z"
       id="path7120" />
    <path
       d="m 61.60798,142.548 q 0,-0.696 -0.204,-1.284 -0.192,-0.588 -0.576,-1.02 -0.384,-0.432 -0.936,-0.672 -0.552,-0.24 -1.272,-0.24 -1.476,0 -2.328,0.852 -0.84,0.852 -1.068,2.364 z m 1.932,5.712 q -0.432,0.504 -0.996,0.876 -0.564,0.36 -1.2,0.588 -0.636,0.228 -1.32,0.336 -0.672,0.108 -1.332,0.108 -1.26,0 -2.34,-0.42 -1.068,-0.432 -1.86,-1.248 -0.78,-0.828 -1.224,-2.04 -0.432,-1.224 -0.432,-2.808 0,-1.272 0.396,-2.364 0.396,-1.104 1.128,-1.92 0.744,-0.816 1.812,-1.284 1.068,-0.468 2.4,-0.468 1.116,0 2.052,0.372 0.948,0.36 1.632,1.056 0.684,0.696 1.068,1.716 0.396,1.02 0.396,2.328 0,0.54 -0.12,0.732 -0.12,0.18 -0.444,0.18 h -7.992 q 0.036,1.092 0.312,1.908 0.276,0.804 0.756,1.344 0.492,0.54 1.164,0.804 0.672,0.264 1.5,0.264 0.78,0 1.344,-0.18 0.576,-0.18 0.984,-0.384 0.42,-0.216 0.696,-0.396 0.288,-0.18 0.504,-0.18 0.288,0 0.444,0.216 z"
       id="path7122" />
    <path
       d="m 68.447957,140.148 q 0.588,-1.2 1.416,-1.884 0.828,-0.684 1.992,-0.684 0.396,0 0.744,0.096 0.36,0.084 0.624,0.264 l -0.156,1.764 q -0.084,0.324 -0.396,0.324 -0.168,0 -0.504,-0.06 -0.336,-0.072 -0.72,-0.072 -0.564,0 -0.996,0.168 -0.432,0.156 -0.78,0.48 -0.336,0.312 -0.6,0.78 -0.264,0.456 -0.492,1.044 V 150 h -2.34 v -12.192 h 1.344 q 0.384,0 0.516,0.144 0.144,0.132 0.204,0.48 z"
       id="path7124" />
  </g>
  <g
     aria-label="Receiver"
     id="text3177"
     style="font-weight:500;line-height:0%;font-family:Lato;-inkscape-font-specification:'Lato Medium'">
    <path
       d="m 552.27601,141.072 q 0.984,0 1.728,-0.24 0.756,-0.24 1.26,-0.672 0.504,-0.444 0.756,-1.044 0.252,-0.612 0.252,-1.344 0,-1.488 -0.984,-2.244 -0.972,-0.756 -2.928,-0.756 h -2.412 v 6.3 z m 8.04,8.928 h -2.28 q -0.684,0 -0.996,-0.54 l -4.26,-5.976 q -0.204,-0.3 -0.444,-0.42 -0.24,-0.132 -0.72,-0.132 h -1.668 V 150 h -2.556 v -17.232 h 4.968 q 1.668,0 2.868,0.348 1.212,0.336 1.992,0.972 0.792,0.624 1.164,1.512 0.384,0.888 0.384,1.992 0,0.9 -0.276,1.692 -0.276,0.792 -0.816,1.428 -0.528,0.624 -1.296,1.08 -0.768,0.456 -1.74,0.696 0.48,0.288 0.828,0.804 z"
       style="font-size:24px;line-height:1.25"
       id="path7097" />
    <path
       d="m 569.328,142.548 q 0,-0.696 -0.204,-1.284 -0.192,-0.588 -0.576,-1.02 -0.384,-0.432 -0.936,-0.672 -0.552,-0.24 -1.272,-0.24 -1.476,0 -2.328,0.852 -0.84,0.852 -1.068,2.364 z m 1.932,5.712 q -0.432,0.504 -0.996,0.876 -0.564,0.36 -1.2,0.588 -0.636,0.228 -1.32,0.336 -0.672,0.108 -1.332,0.108 -1.26,0 -2.34,-0.42 -1.068,-0.432 -1.86,-1.248 -0.78,-0.828 -1.224,-2.04 -0.432,-1.224 -0.432,-2.808 0,-1.272 0.396,-2.364 0.396,-1.104 1.128,-1.92 0.744,-0.816 1.812,-1.284 1.068,-0.468 2.4,-0.468 1.116,0 2.052,0.372 0.948,0.36 1.632,1.056 0.684,0.696 1.068,1.716 0.396,1.02 0.396,2.328 0,0.54 -0.12,0.732 -0.12,0.18 -0.444,0.18 h -7.992 q 0.036,1.092 0.312,1.908 0.276,0.804 0.756,1.344 0.492,0.54 1.164,0.804 0.672,0.264 1.5,0.264 0.78,0 1.344,-0.18 0.576,-0.18 0.984,-0.384 0.42,-0.216 0.696,-0.396 0.288,-0.18 0.504,-0.18 0.288,0 0.444,0.216 z"
       style="font-size:24px;line-height:1.25"
       id="path7099" />
    <path
       d="m 582.50398,140.088 q -0.108,0.132 -0.216,0.216 -0.096,0.072 -0.288,0.072 -0.192,0 -0.408,-0.144 -0.204,-0.156 -0.528,-0.324 -0.312,-0.18 -0.768,-0.324 -0.444,-0.156 -1.104,-0.156 -0.864,0 -1.524,0.312 -0.66,0.312 -1.104,0.888 -0.432,0.576 -0.66,1.404 -0.228,0.828 -0.228,1.86 0,1.068 0.24,1.908 0.24,0.828 0.684,1.404 0.444,0.564 1.08,0.864 0.636,0.288 1.416,0.288 0.756,0 1.248,-0.18 0.492,-0.192 0.816,-0.408 0.324,-0.216 0.54,-0.396 0.216,-0.192 0.444,-0.192 0.288,0 0.444,0.216 l 0.672,0.864 q -0.42,0.516 -0.948,0.876 -0.516,0.36 -1.104,0.588 -0.588,0.228 -1.236,0.336 -0.636,0.108 -1.296,0.108 -1.14,0 -2.136,-0.42 -0.984,-0.42 -1.716,-1.224 -0.72,-0.804 -1.14,-1.968 -0.42,-1.176 -0.42,-2.664 0,-1.356 0.372,-2.508 0.384,-1.152 1.116,-1.98 0.744,-0.84 1.824,-1.308 1.08,-0.48 2.472,-0.48 1.308,0 2.304,0.42 0.996,0.42 1.776,1.188 z"
       style="font-size:24px;line-height:1.25"
       id="path7101" />
    <path
       d="m 593.30397,142.548 q 0,-0.696 -0.204,-1.284 -0.192,-0.588 -0.576,-1.02 -0.384,-0.432 -0.936,-0.672 -0.552,-0.24 -1.272,-0.24 -1.476,0 -2.328,0.852 -0.84,0.852 -1.068,2.364 z m 1.932,5.712 q -0.432,0.504 -0.996,0.876 -0.564,0.36 -1.2,0.588 -0.636,0.228 -1.32,0.336 -0.672,0.108 -1.332,0.108 -1.26,0 -2.34,-0.42 -1.068,-0.432 -1.86,-1.248 -0.78,-0.828 -1.224,-2.04 -0.432,-1.224 -0.432,-2.808 0,-1.272 0.396,-2.364 0.396,-1.104 1.128,-1.92 0.744,-0.816 1.812,-1.284 1.068,-0.468 2.4,-0.468 1.116,0 2.052,0.372 0.948,0.36 1.632,1.056 0.684,0.696 1.068,1.716 0.396,1.02 0.396,2.328 0,0.54 -0.12,0.732 -0.12,0.18 -0.444,0.18 h -7.992 q 0.036,1.092 0.312,1.908 0.276,0.804 0.756,1.344 0.492,0.54 1.164,0.804 0.672,0.264 1.5,0.264 0.78,0 1.344,-0.18 0.576,-0.18 0.984,-0.384 0.42,-0.216 0.696,-0.396 0.288,-0.18 0.504,-0.18 0.288,0 0.444,0.216 z"
       style="font-size:24px;line-height:1.25"
       id="path7103" />
    <path
       d="M 600.38395,137.808 V 150 h -2.34 v -12.192 z m 0.444,-3.768 q 0,0.324 -0.132,0.624 -0.132,0.288 -0.36,0.516 -0.216,0.216 -0.516,0.348 -0.3,0.12 -0.624,0.12 -0.324,0 -0.612,-0.12 -0.288,-0.132 -0.516,-0.348 -0.216,-0.228 -0.348,-0.516 -0.12,-0.3 -0.12,-0.624 0,-0.336 0.12,-0.624 0.132,-0.3 0.348,-0.516 0.228,-0.228 0.516,-0.348 0.288,-0.132 0.612,-0.132 0.324,0 0.624,0.132 0.3,0.12 0.516,0.348 0.228,0.216 0.36,0.516 0.132,0.288 0.132,0.624 z"
       style="font-size:24px;line-height:1.25"
       id="path7105" />
    <path
       d="m 614.36394,137.808 -4.944,12.192 h -2.112 l -4.944,-12.192 h 1.932 q 0.276,0 0.456,0.132 0.18,0.132 0.24,0.336 l 2.916,7.488 q 0.156,0.468 0.264,0.936 0.12,0.456 0.216,0.912 0.096,-0.456 0.216,-0.912 0.12,-0.456 0.288,-0.936 l 2.952,-7.488 q 0.072,-0.204 0.252,-0.336 0.18,-0.132 0.432,-0.132 z"
       style="font-size:24px;line-height:1.25"
       id="path7107" />
    <path
       d="m 623.96393,142.548 q 0,-0.696 -0.204,-1.284 -0.192,-0.588 -0.576,-1.02 -0.384,-0.432 -0.936,-0.672 -0.552,-0.24 -1.272,-0.24 -1.476,0 -2.328,0.852 -0.84,0.852 -1.068,2.364 z m 1.932,5.712 q -0.432,0.504 -0.996,0.876 -0.564,0.36 -1.2,0.588 -0.636,0.228 -1.32,0.336 -0.672,0.108 -1.332,0.108 -1.26,0 -2.34,-0.42 -1.068,-0.432 -1.86,-1.248 -0.78,-0.828 -1.224,-2.04 -0.432,-1.224 -0.432,-2.808 0,-1.272 0.396,-2.364 0.396,-1.104 1.128,-1.92 0.744,-0.816 1.812,-1.284 1.068,-0.468 2.4,-0.468 1.116,0 2.052,0.372 0.948,0.36 1.632,1.056 0.684,0.696 1.068,1.716 0.396,1.02 0.396,2.328 0,0.54 -0.12,0.732 -0.12,0.18 -0.444,0.18 h -7.992 q 0.036,1.092 0.312,1.908 0.276,0.804 0.756,1.344 0.492,0.54 1.164,0.804 0.672,0.264 1.5,0.264 0.78,0 1.344,-0.18 0.576,-0.18 0.984,-0.384 0.42,-0.216 0.696,-0.396 0.288,-0.18 0.504,-0.18 0.288,0 0.444,0.216 z"
       style="font-size:24px;line-height:1.25"
       id="path7109" />
    <path
       d="m 630.8039,140.148 q 0.588,-1.2 1.416,-1.884 0.828,-0.684 1.992,-0.684 0.396,0 0.744,0.096 0.36,0.084 0.624,0.264 l -0.156,1.764 q -0.084,0.324 -0.396,0.324 -0.168,0 -0.504,-0.06 -0.336,-0.072 -0.72,-0.072 -0.564,0 -0.996,0.168 -0.432,0.156 -0.78,0.48 -0.336,0.312 -0.6,0.78 -0.264,0.456 -0.492,1.044 V 150 h -2.34 v -12.192 h 1.344 q 0.384,0 0.516,0.144 0.144,0.132 0.204,0.48 z"
       style="font-size:24px;line-height:1.25"
       id="path7111" />
  </g>
  <path
     d="m 136.7055,77.75 -3.28125,1.3125 -0.0312,0.03125 -12.875,5.21875 c 1.74691,0.373184 3.33602,1.175553 4.625,2.28125 l -46.71875,42.46875 1.6875,1.875 46.71875,-42.46875 c 0.97597,1.38208 1.63007,3.02365 1.8125,4.78125 l 6.34375,-12.1875 0.125,-0.125 -0.0312,-0.03125 z"
     id="path3179"
     style="fill:#35668e;fill-opacity:1" />
  <path
     d="m 129.9555,118.40625 c 1.44496,1.04587 2.54907,2.40787 3.28125,3.9375 l -49.375,16.46875 0.8125,2.375 49.375,-16.46875 c 0.3411,1.66752 0.2655,3.43351 -0.28125,5.125 l 10.75,-8.59375 0.15625,-0.0625 -0.0312,-0.0625 2.75,-2.1875 -3.53125,-0.0937 v -0.0312 l -0.0625,0.0312 z"
     id="path3181"
     style="fill:#32b484;fill-opacity:1" />
  <path
     d="m 84.67425,148.8125 -0.8125,2.375 49.375,16.46875 c -0.72792,1.52522 -1.83928,2.8884 -3.28125,3.90625 l 13.78125,-0.40625 0.125,0.0312 0.0312,-0.0625 3.53125,-0.0937 -2.75,-2.1875 v -0.0312 l -0.0625,-0.0312 -10.8437,-8.65635 c 0.5295,1.70708 0.58432,3.45906 0.25,5.125 z"
     id="path3183"
     style="fill:#3e1062;fill-opacity:1" />
  <path
     d="m 80.143,159.125 -1.75,1.75 47.09375,47.09375 c -1.33812,1.04911 -2.96308,1.76409 -4.71875,2.03125 l 12.53125,5.78125 0.0937,0.0937 0.0312,-0.0312 3.1875,1.46875 -1.46875,-3.1875 -5.84375,-12.65625 c -0.29103,1.77096 -1.01145,3.40615 -2.0625,4.75 z"
     id="path3185"
     style="fill:#eae31b;fill-opacity:1" />
  <path
     d="m 485.11175,79.0625 -1.6875,1.875 46.71875,42.46875 c -1.28331,1.10341 -2.86092,1.90128 -4.59375,2.25 l 12.75,5.15625 0.125,0.125 0.0312,-0.0312 3.28125,1.3125 -1.625,-3.15625 -0.0312,-0.0312 -6.40625,-12.3125 c -0.20544,1.77393 -0.86604,3.42456 -1.84375,4.8125 z"
     id="path3965"
     style="fill:#35668e;fill-opacity:1" />
  <path
     d="m 474.67425,118.8125 -0.8125,2.375 49.375,16.46875 c -0.72792,1.52522 -1.83928,2.8884 -3.28125,3.90625 l 13.78125,-0.40625 0.125,0.0312 0.0312,-0.0625 3.53125,-0.0937 -2.75,-2.1875 v -0.0312 l -0.0625,-0.0312 -10.8437,-8.65635 c 0.5295,1.70708 0.58432,3.45906 0.25,5.125 z"
     id="path3967"
     style="fill:#32b484;fill-opacity:1" />
  <path
     d="m 519.9555,148.40625 c 1.44496,1.04587 2.54907,2.40787 3.28125,3.9375 l -49.375,16.46875 0.8125,2.375 49.375,-16.46875 c 0.3411,1.66752 0.26551,3.43351 -0.28125,5.125 l 10.75,-8.59375 0.15625,-0.0625 -0.0312,-0.0625 2.75,-2.1875 -3.53125,-0.0937 v -0.0312 l -0.0625,0.0312 z"
     id="path3969"
     style="fill:#3e1062;fill-opacity:1" />
  <path
     d="m 541.5805,157.65625 -3.1875,1.46875 -12.65625,5.84375 c 1.77096,0.29103 3.40615,1.01145 4.75,2.0625 L 483.393,214.125 l 1.75,1.75 47.09375,-47.09375 c 1.04911,1.33812 1.76409,2.96308 2.03125,4.71875 l 5.78125,-12.53125 0.0937,-0.0937 -0.0312,-0.0312 z"
     id="path3971"
     style="fill:#eae31b;fill-opacity:1" />
</svg>
